<svg width="452" height="189" viewBox="0 0 452 189" fill="none" xmlns="http://www.w3.org/2000/svg" xmlns:xlink="http://www.w3.org/1999/xlink">
<path d="M20.3594 151.36L45.3595 84.1602H59.439L84.6196 151.36H69.7279L63.9517 135.124H40.0346L34.2584 151.36H20.3594ZM52.0382 101.389L44.2765 123.127H59.7098L52.0382 101.389Z" fill="white"></path>
<path d="M90.4678 151.36V102.832H104.096V107.793C106.713 103.734 111.497 101.659 117.905 101.659C129.096 101.659 134.421 110.048 134.421 122.044V151.36H120.793V122.405C120.793 114.828 117.273 111.942 112.67 111.942C107.887 111.942 104.096 114.828 104.096 122.405V151.36H90.4678Z" fill="white"></path>
<path d="M174.62 121.052V119.338C174.62 113.205 171.28 111.04 165.955 111.04C161.082 111.04 157.201 113.205 156.659 117.895H144.114C144.926 108.875 152.959 101.479 166.948 101.479C180.847 101.479 188.428 106.891 188.428 121.684V151.36H175.703V145.858C172.634 150.548 167.129 152.532 160.36 152.532C150.883 152.532 142.58 147.12 142.58 137.108C142.58 126.374 153.861 119.97 174.62 121.052ZM174.981 129.802C163.248 128.9 156.479 131.786 156.479 136.657C156.479 140.355 159.547 142.971 164.331 142.971C170.468 142.971 174.981 139.904 174.981 130.974V129.802Z" fill="white"></path>
<path d="M199.23 151.36V84.1602H212.858V151.36H199.23Z" fill="white"></path>
<path d="M229.676 168.949L237.167 150.187L219.117 102.832H234.008L244.568 134.312L256.211 102.832H270.019L243.485 168.949H229.676Z" fill="white"></path>
<path d="M296.309 152.532C284.937 152.532 279.071 146.218 279.071 130.884V112.664H271.399V102.832H279.071V92.0978L292.699 84.3406V102.832H303.529V112.664H292.699V129.17C292.699 136.026 293.511 141.347 300.371 141.347C301.273 141.347 302.266 141.167 303.439 140.987V151.991C301.273 152.442 298.475 152.532 296.309 152.532Z" fill="white"></path>
<path d="M311.87 151.36V102.832H325.498V151.36H311.87Z" fill="white"></path>
<path d="M347.732 127.096C347.732 136.026 351.793 142.249 359.374 142.249C364.609 142.249 368.039 140.085 369.663 134.763H383.562C380.764 146.038 371.468 152.532 359.465 152.532C344.573 152.532 334.103 141.798 334.103 127.096C334.103 112.393 344.573 101.659 359.465 101.659C371.468 101.659 380.764 108.154 383.562 119.429H369.663C368.039 114.107 364.609 111.942 359.374 111.942C351.793 111.942 347.732 118.166 347.732 127.096Z" fill="white"></path>
<path d="M410.238 152.532C398.956 152.532 390.201 148.022 388.126 136.567H401.032C402.115 140.716 405.274 142.791 410.508 142.791C415.563 142.791 418.721 140.987 418.721 137.739C418.721 134.582 416.194 133.049 410.96 132.147L405.093 131.155C395.617 129.531 388.667 124.39 388.667 115.821C388.667 107.252 397.692 101.208 408.162 101.208C417.368 101.208 427.476 103.914 429.552 116.001H417.097C415.833 112.213 412.494 110.95 408.252 110.95C403.198 110.95 400.671 113.024 400.671 115.46C400.671 117.805 402.295 119.789 407.35 120.601L412.765 121.503C422.783 123.217 431.086 126.464 431.086 136.567C431.086 146.76 421.61 152.532 410.238 152.532Z" fill="white"></path>
<rect x="305.359" y="69.2695" width="26.9998" height="29.9998" fill="url(#pattern0_2846_196110)"></rect>
<path d="M104.573 48.3991C98.5025 48.5981 94.7305 49.6936 94.7305 53.6924C94.7305 56.2811 96.7943 59.0875 102.034 59.0875C109.058 59.0875 112.808 55.2586 112.808 48.9786L112.808 48.2879C110.345 48.2879 107.308 48.3094 104.573 48.3991ZM119.504 56.6963C119.504 58.6446 119.56 60.5678 119.73 62.2997H113.502C113.336 60.8737 113.275 59.4567 113.275 58.0823C109.908 62.2213 105.903 63.4111 100.348 63.4111C92.1074 63.4111 87.6953 59.0557 87.6953 54.0179C87.6953 46.7215 93.6962 44.1489 104.114 43.9103C106.963 43.8452 110.163 43.8356 112.808 43.8356L112.808 43.1227C112.808 38.238 109.676 36.2296 104.248 36.2296C100.219 36.2296 97.2492 37.897 96.9432 40.7784H89.9087C90.6532 33.5943 98.201 31.7773 104.838 31.7773C112.788 31.7773 119.504 34.6061 119.504 43.0154V56.6963Z" fill="#FFBD14"></path>
<path d="M46.6721 44.8363C46.4124 38.5733 41.8919 36.2296 37.0605 36.2296C31.8507 36.2296 27.6913 38.866 26.9627 44.8363H46.6721ZM26.8184 49.2886C27.1797 55.3654 31.3702 58.9595 37.1323 58.9595C41.1244 58.9595 44.6755 57.3328 45.8645 53.7943H52.7697C51.4267 60.9741 43.7977 63.4111 37.2312 63.4111C25.2916 63.4111 20 56.8356 20 47.968C20 38.2064 25.4732 31.7773 37.3402 31.7773C46.7858 31.7773 53.7066 36.7206 53.7066 47.5099V49.2886H26.8184Z" fill="#F02D2D"></path>
<path d="M70.8787 58.8284C77.1009 58.8284 81.3587 54.3497 81.3587 47.5911C81.3587 40.8332 77.1009 36.3539 70.8787 36.3539C64.6914 36.3539 60.3983 40.8332 60.3983 47.5911C60.3983 54.3497 64.6914 58.8284 70.8787 58.8284ZM53.7044 20H60.3983L60.3977 36.8176C63.6786 32.9084 68.1986 31.7734 72.6478 31.7734C80.1075 31.7734 88.3931 36.8072 88.3931 47.6761C88.3931 56.7775 81.8036 63.4072 72.5235 63.4072C67.6661 63.4072 63.0937 61.6647 60.2739 58.2123C60.2739 59.5912 60.1969 60.9811 60.0461 62.2958H53.4766C53.5908 60.1702 53.7044 57.5237 53.7044 55.3822V20Z" fill="#0968F6"></path>
<path d="M153.598 32.8906L132.897 73.5453H125.401L131.352 62.2565L115.773 32.8906H123.606L135.07 55.8344L146.501 32.8906H153.598Z" fill="#92C821"></path>
<defs>
<pattern id="pattern0_2846_196110" patternContentUnits="objectBoundingBox" width="1" height="1">
<use xlink:href="#image0_2846_196110" transform="matrix(0.000474317 0 0 0.00043389 -0.472325 -5.87174e-05)"></use>
</pattern>
<image id="image0_2846_196110" width="4096" height="2305" preserveAspectRatio="none"></image>
</defs>
</svg>